<?xml version="1.0" encoding="UTF-8" standalone="no"?>
<svg
   viewBox="0 0 36 36"
   version="1.1"
   id="svg8"
   sodipodi:docname="1f998_kangaroo_flipped.svg"
   inkscape:version="1.4.3 (0d15f75, 2025-12-25)"
   xmlns:inkscape="http://www.inkscape.org/namespaces/inkscape"
   xmlns:sodipodi="http://sodipodi.sourceforge.net/DTD/sodipodi-0.dtd"
   xmlns="http://www.w3.org/2000/svg"
   xmlns:svg="http://www.w3.org/2000/svg">
  <defs
     id="defs8" />
  <sodipodi:namedview
     id="namedview8"
     pagecolor="#ffffff"
     bordercolor="#000000"
     borderopacity="0.25"
     inkscape:showpageshadow="2"
     inkscape:pageopacity="0.0"
     inkscape:pagecheckerboard="0"
     inkscape:deskcolor="#d1d1d1"
     inkscape:zoom="0.72222222"
     inkscape:cx="18"
     inkscape:cy="18"
     inkscape:window-width="1440"
     inkscape:window-height="781"
     inkscape:window-x="0"
     inkscape:window-y="30"
     inkscape:window-maximized="1"
     inkscape:current-layer="svg8" />
  <path
     fill="#bf6952"
     d="m 29.321035,0.886 c 0,0.984 -0.649,3.926 -1.153,5.047 -0.504,1.121 0.505,0.35 1.442,-0.771 0.937,-1.121 1.657,-2.244 1.225,-3.435 -0.432,-1.191 -1.514,-2.173 -1.514,-0.841 z"
     id="path1" />
  <path
     fill="#d99e82"
     d="m 35.520035,10.699 c 0.004,0.961 -1.22,2.097 -2.883,1.682 -1.333,-0.332 -3.234,-1.359 -3.316,-0.561 -0.082,0.798 1.179,3.471 0.629,6.276 -0.93,4.74 -2.379,8.873 -7.201,10.095 0,0 -0.723,2.775 -1.479,3.986 -0.694,1.111 -1.029,2.022 -0.45,2.215 0.579,0.193 3.472,0.386 4.694,0.579 1.221,0.193 1.414,1.029 0.064,1.029 h -6.944 c -0.707,0 -0.643,-0.643 -0.193,-1.607 0.45,-0.964 -0.805,-2.643 -0.598,-5.332 -0.414,0.14 -1.395,0.067 -1.974,0.838 -0.579,0.772 -3.729,5.976 -8.8090004,5.976 -5.08,0 -6.43000001,-3.826 -6.81500001,-4.855 -0.386,-1.029 0.45,-1.029 1.09300001,-0.193 0.643,0.836 2.761,1.931 5.722,1.508 3.1510004,-0.45 3.8220004,-4.465 4.6580004,-6.909 0.836,-2.443 2.74,-6.968 7.044,-9.487 3.177,-1.859 5.483,-1.31 5.363,-3.356 -0.178,-3.033 -0.325,-5.21 1.099,-6.892 1.15,-1.357 3.851,-1.264 5.418,-0.319 0.697,0.42 1.117,1.595 1.778,2.103 1.986,1.523 3.097,2.373 3.1,3.224 z"
     id="path2" />
  <path
     fill="#d79e84"
     d="m 29.792035,22.625 c 0.259,0.531 0.006,1.019 0.158,1.355 0.225,0.497 1.254,0.804 1.35,-0.032 0.097,-0.836 0.021,-1.948 -0.45,-2.572 -0.322,-0.427 -3.279,-2.797 -3.408,-2.893 -0.129,-0.096 0.354,-2.893 0.354,-2.893 0,0 -0.096,-1.125 -1.447,-0.868 -1.35,0.257 -1.318,1.415 -1.318,2.636 0,1.221 -0.225,2.443 0.386,2.733 0.611,0.29 4.117,2.003 4.375,2.534 z"
     id="path3" />
  <path
     fill="#292f33"
     d="m 29.177035,7.405 c 0,0.465 0.387,0.841 0.865,0.841 0.478,0 0.865,-0.377 0.865,-0.841 0,-0.464 -0.387,-0.561 -0.865,-0.561 -0.478,0 -0.865,0.096 -0.865,0.561 z"
     id="path4" />
  <path
     fill="#d99e82"
     d="m 25.861035,0.255 c -0.912,-0.665 -1.009,1.963 -0.793,2.804 0.216,0.841 1.875,3.014 1.875,3.014 0,0 1.297,0.631 1.297,-0.911 0,-1.542 -1.514,-4.276 -2.379,-4.907 z"
     id="path5" />
  <path
     fill="#bf6952"
     d="m 25.772035,2.09 c -0.58,0.346 1.307,3.303 1.766,3.055 0.459,-0.247 -0.988,-3.519 -1.766,-3.055 z"
     id="path6" />
  <path
     fill="#292f33"
     d="m 35.520035,10.139 c -0.869,-0.528 -1.081,0.911 -0.793,1.402 0.289,0.49 1.37,-1.052 0.793,-1.402 z"
     id="path7" />
  <path
     fill="#bf6952"
     d="m 28.560035,22.34 c 0.125,0 0.244,-0.073 0.297,-0.195 0.071,-0.164 -0.004,-0.354 -0.168,-0.426 -1.066,-0.464 -1.99,-1.182 -2.367,-1.533 -0.15,-0.182 -0.523,-1.447 -0.777,-2.511 -0.042,-0.174 -0.219,-0.278 -0.39,-0.24 -0.174,0.042 -0.281,0.216 -0.24,0.39 0.223,0.931 0.645,2.536 0.966,2.835 0.546,0.508 1.546,1.216 2.55,1.652 0.042,0.019 0.086,0.028 0.129,0.028 z"
     id="path8" />
</svg>
